<?xml version="1.0" encoding="UTF-8"?>
<!DOCTYPE svg  PUBLIC '-//W3C//DTD SVG 1.1//EN'  'http://www.w3.org/Graphics/SVG/1.1/DTD/svg11.dtd' [
	<!ENTITY ns_extend "http://ns.adobe.com/Extensibility/1.0/">
	<!ENTITY ns_ai "http://ns.adobe.com/AdobeIllustrator/10.0/">
	<!ENTITY ns_graphs "http://ns.adobe.com/Graphs/1.0/">
	<!ENTITY ns_vars "http://ns.adobe.com/Variables/1.0/">
	<!ENTITY ns_imrep "http://ns.adobe.com/ImageReplacement/1.0/">
	<!ENTITY ns_sfw "http://ns.adobe.com/SaveForWeb/1.0/">
	<!ENTITY ns_custom "http://ns.adobe.com/GenericCustomNamespace/1.0/">
	<!ENTITY ns_adobe_xpath "http://ns.adobe.com/XPath/1.0/">
]>
<svg enable-background="new 0 0 165 57" version="1.1" viewBox="0 0 165 57" xml:space="preserve" xmlns="http://www.w3.org/2000/svg">
	<g fill="#0E2A4B">
		<path d="m45.076 32.782v-4.922c1.817 0.889 4.21 1.491 6.148 1.491 2 0 3.06-0.221 3.06-1.491 0-1.302-1.271-1.588-4.21-2.541-3.938-1.334-5.271-2.858-5.271-6.192 0-4.033 2.756-6.16 8.118-6.16 2.149 0 4.664 0.444 6.088 0.921v4.954c-1.907-0.794-3.665-1.111-5.18-1.111-1.786 0-3.211 0.127-3.211 1.366 0 1.079 0.909 1.333 3.665 2.095 4.786 1.366 5.816 3.494 5.816 6.669 0 3.715-2.726 6.192-8.3 6.192-2.633 0-5.087-0.446-6.723-1.271z"/>
		<path d="m60.855 23.7c0-6.859 3.815-10.733 11.056-10.733 2.424 0 4.301 0.286 6.059 0.889v5.113c-1.787-0.699-3.695-0.921-5.664-0.921-3.757 0-5.635 1.683-5.635 5.652 0 3.715 1.636 5.272 4.847 5.272 1.029 0 1.969-0.16 2.787-0.414v-2.985h-3.878v-3.683h8.634v10.288c-1.485 0.984-3.938 1.874-7.543 1.874-6.938 1e-3 -10.663-3.684-10.663-10.352z"/>
		<path d="m79.511 13.285h5.938l4.544 13.527 4.544-13.527h5.967l-7.481 20.45h-6.028l-7.484-20.45z"/>
		<path d="m102.47 25.859v-12.574h5.694v11.94c0 2.54 1.242 3.748 3.545 3.748 2.271 0 3.514-1.208 3.514-3.748v-11.94h5.694v12.575c0 5.335-3.786 8.193-9.208 8.193-5.453 0-9.239-2.859-9.239-8.194z"/>
	</g>
	<g fill="#0E2A4B">
			<path d="m127.47 17.042c-0.542 0-0.982-0.067-1.315-0.2v-0.488c0.38 0.141 0.814 0.221 1.269 0.221 0.772 0 1.166-0.174 1.166-0.721 0-0.501-0.326-0.655-1.233-0.869-0.964-0.233-1.302-0.568-1.302-1.195 0-0.728 0.528-1.182 1.619-1.182 0.502 0 0.97 0.087 1.207 0.167v0.481c-0.325-0.113-0.712-0.18-1.119-0.18-0.738 0-1.152 0.194-1.152 0.714 0 0.441 0.265 0.581 1.16 0.795 1.064 0.253 1.376 0.654 1.376 1.269-1e-3 0.761-0.564 1.188-1.676 1.188z"/>
			<path d="m133.04 15.406v-2.731h0.555v2.725c0 1.069-0.644 1.643-1.83 1.643-1.193 0-1.838-0.574-1.838-1.643v-2.725h0.557v2.731c0 0.788 0.468 1.169 1.281 1.169 0.806 0 1.275-0.381 1.275-1.169z"/>
			<path d="m136.85 15.219c0.183 0.107 0.25 0.233 0.352 0.461l0.569 1.295h-0.569l-0.556-1.249c-0.122-0.267-0.237-0.375-0.657-0.375h-0.923v1.623h-0.556v-4.301h1.919c0.942 0 1.35 0.521 1.35 1.336-1e-3 0.636-0.32 1.07-0.929 1.21zm0.372-1.209c0-0.595-0.292-0.902-0.874-0.902h-1.282v1.816h1.207c0.589 1e-3 0.949-0.273 0.949-0.914z"/>
			<path d="m138.59 12.674h2.95v0.434h-2.395v1.502h2.15v0.428h-2.15v1.509h2.395v0.427h-2.95v-4.3z"/>
			<path d="m143.63 17.042c-0.542 0-0.982-0.067-1.315-0.2v-0.488c0.38 0.141 0.814 0.221 1.269 0.221 0.772 0 1.165-0.174 1.165-0.721 0-0.501-0.324-0.655-1.233-0.869-0.963-0.233-1.302-0.568-1.302-1.195 0-0.728 0.529-1.182 1.62-1.182 0.502 0 0.97 0.087 1.207 0.167v0.481c-0.325-0.113-0.712-0.18-1.119-0.18-0.738 0-1.152 0.194-1.152 0.714 0 0.441 0.265 0.581 1.16 0.795 1.064 0.253 1.376 0.654 1.376 1.269-1e-3 0.761-0.565 1.188-1.676 1.188z"/>
			<path d="m148.98 15.039h-2.305v1.937h-0.557v-4.301h0.557v1.937h2.305v-1.937h0.556v4.301h-0.556v-1.937z"/>
			<path d="m129.12 24.927v-1.419h-1.119v-0.388h1.581v2.119c-0.253 0.173-0.716 0.353-1.495 0.353-1.354 0-2.011-0.872-2.011-2.202 0-1.454 0.592-2.396 2.004-2.396 0.481 0 0.871 0.076 1.217 0.208v0.498c-0.346-0.138-0.742-0.221-1.172-0.221-1.132 0-1.516 0.72-1.516 1.911 0 1.101 0.449 1.717 1.51 1.717 0.371 0 0.734-0.069 1.001-0.18z"/>
			<path d="m131.44 23.861-1.496-2.797h0.553l1.21 2.313 1.21-2.313h0.553l-1.495 2.797v1.662h-0.534v-1.662z"/>
			<path d="m133.93 25.523h-0.553l1.594-4.459h0.624l1.587 4.459h-0.546l-0.442-1.226h-1.821l-0.443 1.226zm0.533-1.676h1.633l-0.82-2.292-0.813 2.292z"/>
			<path d="m138.5 25.523h-0.533v-4.459h0.48l2.388 3.587v-3.587h0.533v4.459h-0.487l-2.381-3.58v3.58z"/>
			<path d="m148.42 21.063-1.587 4.459h-0.624l-1.594-4.459h0.553l1.347 3.885 1.354-3.885h0.551z"/>
			<path d="m149.21 21.063h0.533v4.459h-0.533v-4.459z"/>
			<path d="m153.4 23.515h-2.212v2.008h-0.533v-4.459h0.533v2.008h2.212v-2.008h0.533v4.459h-0.533v-2.008z"/>
			<path d="m155.27 25.523h-0.553l1.594-4.459h0.624l1.587 4.459h-0.546l-0.442-1.226h-1.821l-0.443 1.226zm0.533-1.676h1.633l-0.82-2.292-0.813 2.292z"/>
			<path d="m161.55 23.702c0.177 0.111 0.241 0.242 0.339 0.478l0.547 1.343h-0.547l-0.533-1.295c-0.117-0.277-0.229-0.388-0.632-0.388h-0.884v1.683h-0.533v-4.459h1.841c0.904 0 1.295 0.54 1.295 1.385-1e-3 0.657-0.307 1.108-0.893 1.253zm0.358-1.253c0-0.617-0.279-0.935-0.839-0.935h-1.229v1.883h1.157c0.567 0 0.911-0.284 0.911-0.948z"/>
			<path d="m129.12 32.307v-2.832h0.567v2.825c0 1.107-0.657 1.704-1.869 1.704-1.219 0-1.877-0.597-1.877-1.704v-2.825h0.568v2.832c0 0.817 0.478 1.212 1.309 1.212 0.824 0 1.302-0.395 1.302-1.212z"/>
			<path d="m131.2 33.934h-0.567v-4.459h0.513l2.541 3.587v-3.587h0.567v4.459h-0.519l-2.535-3.58v3.58z"/>
			<path d="m135.22 29.475h0.567v4.459h-0.567v-4.459z"/>
			<path d="m140.68 29.475-1.69 4.459h-0.665l-1.696-4.459h0.589l1.433 3.885 1.441-3.885h0.588z"/>
			<path d="m141.51 29.475h3.013v0.45h-2.445v1.558h2.195v0.443h-2.195v1.565h2.445v0.442h-3.013v-4.458z"/>
			<path d="m147.74 32.113c0.186 0.11 0.256 0.242 0.359 0.478l0.581 1.343h-0.581l-0.568-1.295c-0.124-0.276-0.242-0.388-0.671-0.388h-0.942v1.683h-0.567v-4.459h1.959c0.964 0 1.379 0.539 1.379 1.385-1e-3 0.657-0.326 1.108-0.949 1.253zm0.38-1.254c0-0.616-0.298-0.935-0.893-0.935h-1.31v1.883h1.233c0.603 1e-3 0.97-0.283 0.97-0.948z"/>
			<path d="m150.84 34.004c-0.554 0-1.004-0.07-1.344-0.208v-0.506c0.389 0.146 0.832 0.229 1.296 0.229 0.789 0 1.19-0.18 1.19-0.748 0-0.52-0.332-0.679-1.261-0.9-0.982-0.242-1.329-0.589-1.329-1.239 0-0.754 0.54-1.225 1.655-1.225 0.513 0 0.99 0.089 1.232 0.172v0.499c-0.333-0.118-0.727-0.188-1.142-0.188-0.756 0-1.178 0.201-1.178 0.741 0 0.457 0.27 0.603 1.184 0.824 1.088 0.263 1.406 0.679 1.406 1.315 2e-3 0.791-0.573 1.234-1.709 1.234z"/>
			<path d="m153.38 29.475h0.567v4.459h-0.567v-4.459z"/>
			<path d="m156.69 33.934h-0.568v-4.009h-1.481v-0.45h3.531v0.45h-1.481v4.009z"/>
			<path d="m160.26 32.272-1.593-2.798h0.589l1.287 2.313 1.289-2.313h0.589l-1.593 2.798v1.661h-0.568v-1.661z"/>
	</g>
	<g fill="#0E2A4B">
		<path d="m45.306 40.092h1.764c1.261 0 1.908 0.599 1.908 2.138 0 1.453-0.627 2.098-1.908 2.098h-1.764v-4.236zm1.639 3.551c0.745 0 1.138-0.263 1.138-1.413 0-1.145-0.334-1.401-1.138-1.401h-0.758v2.814h0.758z"/>
		<path d="m49.592 40.092h0.881v4.235h-0.881v-4.235z"/>
		<path d="m51.218 40.092h2.019c0.967 0 1.404 0.553 1.404 1.421 0 0.572-0.307 0.999-0.836 1.184 0.137 0.118 0.202 0.23 0.294 0.447l0.51 1.184h-0.915l-0.496-1.138c-0.086-0.19-0.163-0.263-0.405-0.263h-0.693v1.4h-0.882v-4.235zm1.79 2.098c0.464 0 0.738-0.185 0.738-0.678 0-0.474-0.229-0.685-0.687-0.685h-0.959v1.362h0.908z"/>
		<path d="m55.254 40.092h3.019v0.69h-2.137v1.085h1.896v0.685h-1.896v1.091h2.137v0.685h-3.019v-4.236z"/>
		<path d="m58.396 42.249c0-1.401 0.725-2.223 2.175-2.223 0.504 0 0.896 0.079 1.255 0.21v0.776c-0.365-0.151-0.758-0.23-1.188-0.23-0.961 0-1.347 0.479-1.347 1.467 0 0.935 0.444 1.394 1.359 1.394 0.405 0 0.816-0.072 1.182-0.223v0.782c-0.358 0.118-0.751 0.19-1.254 0.19-1.411 1e-3 -2.182-0.822-2.182-2.143z"/>
		<path d="m63.314 40.775h-1.293v-0.684h3.463v0.684h-1.288v3.552h-0.882v-3.552z"/>
		<path d="m65.478 42.229c0-1.553 0.693-2.203 2.045-2.203 1.353 0 2.045 0.65 2.045 2.203 0 1.453-0.692 2.163-2.045 2.163-1.352 1e-3 -2.045-0.709-2.045-2.163zm3.195 0c0-1.06-0.359-1.447-1.15-1.447-0.79 0-1.149 0.388-1.149 1.447 0 0.954 0.359 1.407 1.149 1.407 0.79 1e-3 1.15-0.452 1.15-1.407z"/>
		<path d="m70.182 40.092h2.018c0.968 0 1.405 0.553 1.405 1.421 0 0.572-0.307 0.999-0.837 1.184 0.138 0.118 0.203 0.23 0.294 0.447l0.511 1.184h-0.915l-0.496-1.138c-0.086-0.19-0.163-0.263-0.405-0.263h-0.692v1.4h-0.882v-4.235zm1.79 2.098c0.464 0 0.738-0.185 0.738-0.678 0-0.474-0.229-0.685-0.687-0.685h-0.96v1.362h0.909z"/>
		<path d="m75.4 40.092h0.967l1.602 4.235h-0.915l-0.399-1.02h-1.548l-0.393 1.02h-0.921l1.607-4.235zm1.123 2.532-0.646-1.704-0.641 1.704h1.287z"/>
		<path d="m78.796 40.775h-1.293v-0.684h3.463v0.684h-1.288v3.552h-0.882v-3.552z"/>
		<path d="M81.449,40.092h3.018v0.69H82.33v1.085h1.896v0.685H82.33v1.091h2.137v0.685h-3.018V40.092z"/>
		<path d="m87.302 42.229c0-1.553 0.692-2.203 2.044-2.203 1.353 0 2.046 0.65 2.046 2.203 0 1.453-0.693 2.163-2.046 2.163-1.352 1e-3 -2.044-0.709-2.044-2.163zm3.194 0c0-1.06-0.359-1.447-1.15-1.447-0.79 0-1.149 0.388-1.149 1.447 0 0.954 0.359 1.407 1.149 1.407 0.791 1e-3 1.15-0.452 1.15-1.407z"/>
		<path d="m92.005 40.092h2.96v0.69h-2.078v1.085h1.836v0.685h-1.836v1.775h-0.882v-4.235z"/>
		<path d="m97.799 40.092h1.764c1.261 0 1.908 0.599 1.908 2.138 0 1.453-0.627 2.098-1.908 2.098h-1.764v-4.236zm1.639 3.551c0.746 0 1.138-0.263 1.138-1.413 0-1.145-0.333-1.401-1.138-1.401h-0.757v2.814h0.757z"/>
		<path d="m102.08 40.092h0.882v4.235h-0.882v-4.235z"/>
		<path d="m103.66 44.163v-0.783c0.379 0.158 0.85 0.263 1.274 0.263 0.607 0 0.889-0.072 0.889-0.473 0-0.382-0.229-0.48-1.046-0.704-0.882-0.243-1.195-0.572-1.195-1.224 0-0.775 0.575-1.216 1.66-1.216 0.502 0 0.967 0.079 1.234 0.177v0.782c-0.347-0.131-0.738-0.203-1.118-0.203-0.548 0-0.881 0.086-0.881 0.46 0 0.33 0.209 0.421 0.953 0.619 1.032 0.276 1.294 0.703 1.294 1.309 0 0.736-0.549 1.223-1.705 1.223-0.541 0-1.018-0.079-1.359-0.23z"/>
		<path d="m108.2 40.775h-1.293v-0.684h3.463v0.684h-1.288v3.552h-0.882v-3.552z"/>
		<path d="m111.52 40.092h0.967l1.602 4.235h-0.915l-0.398-1.02h-1.549l-0.392 1.02h-0.921l1.606-4.235zm1.124 2.532-0.646-1.704-0.641 1.704h1.287z"/>
		<path d="m114.7 40.092h0.765l1.992 2.821v-2.821h0.883v4.235h-0.765l-1.993-2.821v2.821h-0.882v-4.235z"/>
		<path d="m118.95 42.249c0-1.401 0.726-2.223 2.176-2.223 0.503 0 0.896 0.079 1.254 0.21v0.776c-0.365-0.151-0.757-0.23-1.188-0.23-0.96 0-1.346 0.479-1.346 1.467 0 0.935 0.443 1.394 1.358 1.394 0.405 0 0.817-0.072 1.183-0.223v0.782c-0.359 0.118-0.751 0.19-1.255 0.19-1.411 1e-3 -2.182-0.822-2.182-2.143z"/>
		<path d="M123,40.092h3.019v0.69h-2.137v1.085h1.896v0.685h-1.896v1.091h2.137v0.685H123V40.092z"/>
		<path d="m128.98 40.092h3.018v0.69h-2.136v1.085h1.895v0.685h-1.895v1.091h2.136v0.685h-3.018v-4.236z"/>
		<path d="m132.62 40.092h1.764c1.261 0 1.908 0.599 1.908 2.138 0 1.453-0.627 2.098-1.908 2.098h-1.764v-4.236zm1.64 3.551c0.745 0 1.138-0.263 1.138-1.413 0-1.145-0.334-1.401-1.138-1.401h-0.758v2.814h0.758z"/>
		<path d="m136.87 42.735v-2.644h0.883v2.578c0 0.651 0.359 0.967 1 0.967 0.633 0 0.992-0.315 0.992-0.967v-2.578h0.882v2.644c0 1.079-0.718 1.657-1.874 1.657-1.163 1e-3 -1.883-0.578-1.883-1.657z"/>
		<path d="m141.2 42.249c0-1.401 0.725-2.223 2.175-2.223 0.503 0 0.896 0.079 1.254 0.21v0.776c-0.365-0.151-0.757-0.23-1.188-0.23-0.96 0-1.346 0.479-1.346 1.467 0 0.935 0.444 1.394 1.359 1.394 0.404 0 0.816-0.072 1.182-0.223v0.782c-0.358 0.118-0.751 0.19-1.254 0.19-1.411 1e-3 -2.182-0.822-2.182-2.143z"/>
		<path d="m146.57 40.092h0.967l1.602 4.235h-0.915l-0.399-1.02h-1.548l-0.393 1.02h-0.92l1.606-4.235zm1.124 2.532-0.646-1.704-0.641 1.704h1.287z"/>
		<path d="m149.96 40.775h-1.293v-0.684h3.463v0.684h-1.288v3.552h-0.882v-3.552z"/>
		<path d="m152.62 40.092h0.882v4.235h-0.882v-4.235z"/>
		<path d="m154.11 42.229c0-1.553 0.692-2.203 2.044-2.203 1.354 0 2.046 0.65 2.046 2.203 0 1.453-0.692 2.163-2.046 2.163-1.351 1e-3 -2.044-0.709-2.044-2.163zm3.196 0c0-1.06-0.36-1.447-1.151-1.447-0.789 0-1.149 0.388-1.149 1.447 0 0.954 0.36 1.407 1.149 1.407 0.79 1e-3 1.151-0.452 1.151-1.407z"/>
		<path d="m158.82 40.092h0.765l1.992 2.821v-2.821h0.883v4.235h-0.766l-1.992-2.821v2.821h-0.882v-4.235z"/>
	</g>
	<line x1="45.336" x2="162.41" y1="37.904" y2="37.904" fill="none" stroke="#B92025" stroke-miterlimit="10" stroke-width=".5"/>
	<path d="m23.027 43.459c-0.148-0.906-0.299-1.814-0.423-2.698-0.075-0.727-0.15-1.451-0.225-2.155 0.324-0.295 0.923-0.975 1.396-1.11 0.075-0.091 0.149-0.182 0.225-0.249h0.199c0.874 1.587 1.148 3.492 1.897 5.147 0.024 0.159 0.174 0.408 0.124 0.567-0.524-0.113-1.098-0.272-1.646-0.272-0.523 0.249-1.047 0.499-1.547 0.77m-9.33-0.93c-0.05-0.022-0.075-0.045-0.1-0.045v-0.068c-0.998-0.521-1.971-1.021-2.944-1.52 0.425-0.793 1.198-1.655 1.721-2.358 0.301-0.477 0.599-0.93 0.924-1.383 0.274-0.432 0.549-0.862 0.849-1.271 0.024-0.023 0.05-0.046 0.074-0.046h-0.15c0.101-0.112 0.226-0.203 0.35-0.294 0.5 0 0.898 0.726 1.373 0.86 0.199 0.16 0.424 0.318 0.648 0.5-0.025 0.068-0.025 0.136-0.025 0.204-0.924 1.792-1.821 3.607-2.72 5.421zm14.62-0.225c-0.05-0.023-0.074-0.046-0.101-0.046-0.298-1.089-1.048-2.133-1.446-3.198-0.249-0.476-0.499-0.952-0.749-1.429-0.324-0.295-0.398-0.84-0.648-1.18 0.225-0.612 1.148-1.043 1.548-1.564h0.148c1.174 1.497 2.346 2.993 3.543 4.513 0.025 0 0.051 0.023 0.101 0.046 0 0.227 0.424 0.635 0.573 0.771-0.074 0.068-0.124 0.137-0.175 0.228-0.274 0-0.997 0.521-1.098 0.703-0.398 0.158-0.673 0.453-1.048 0.681v0.091h-0.2c-0.148 0.11-0.297 0.247-0.448 0.384zm-10.952-0.818c-0.45-0.204-0.999-0.408-1.498-0.453 0.35-1.202 0.699-2.382 1.048-3.562 0-0.022 0.025-0.045 0.05-0.045 0.375 0.068 0.823 0.408 1.123 0.612-0.199 1.134-0.399 2.29-0.598 3.447-0.05 1e-3 -0.1 1e-3 -0.125 1e-3zm15.019-0.544c-0.074-0.158-0.398-0.613-0.549-0.681v-0.091c-0.074 0-1.322-1.52-1.521-1.86-0.176-0.226-0.35-0.431-0.5-0.635-0.198 0-0.897-1.043-1.048-1.201-0.274-0.341-0.549-0.681-0.797-1.021-0.251-0.182-0.425-0.477-0.549-0.748 0.149-0.159 0.298-0.386 0.522-0.477 0.225 0.204 0.574 0.432 0.699 0.681h0.075c0 0.137 1.672 1.814 1.771 1.837 0.176 0.205 0.35 0.409 0.55 0.635 0.6 0.432 1.147 1.406 1.796 1.701 0 0.182 0.225 0.295 0.374 0.363-0.249 0.454-0.549 0.93-0.698 1.406-0.049 0.024-0.1 0.045-0.125 0.091zm-21.656-1.86c-0.124-0.227-0.225-0.431-0.323-0.635 0.474-0.59 0.948-1.157 1.422-1.724 0.474-0.612 0.947-1.225 1.447-1.837 0.024-0.022 0.05-0.045 0.1-0.045 0.199 0.09 0.299 0.113 0.299 0.34-0.499 0.657-1.022 1.247-1.422 1.95-0.449 0.59-0.874 1.179-1.297 1.769-0.076 0.046-0.15 0.115-0.226 0.182zm-1.522-0.136c-0.898-0.521-2.021-0.794-2.92-1.293-0.198-0.068-0.398-0.136-0.599-0.182v-0.113c0.324-0.272 0.749-0.748 1.099-0.907 0.674-0.612 1.372-1.201 2.07-1.791 0.274-0.091 0.624-0.477 0.823-0.658 0.625-0.521 1.248-1.043 1.871-1.564h0.2c0.2 0.227 0.724 1.043 1.072 1.201 0 0.159 0.45 0.522 0.55 0.636h0.074c0 0.045 0 0.091 0.025 0.136-0.226 0.091-0.3 0.295-0.425 0.477-0.125 0.068-0.225 0.113-0.225 0.272h-0.099c-0.575 0.861-1.597 1.61-2.195 2.472-0.2 0.182-0.8 0.635-0.8 0.93h-0.1c-0.05 0.068-0.074 0.136-0.1 0.227-0.122 0.044-0.221 0.09-0.321 0.157zm24.626-0.271c-0.425-0.386-0.823-0.749-1.224-1.112-0.051-0.067-0.074-0.113-0.1-0.158-0.499-0.182-0.849-0.862-1.297-1.066-0.05-0.045-0.725-0.793-0.874-0.793 0-0.183-0.398-0.408-0.549-0.499 0-0.25-0.898-0.749-1.047-1.021-0.051-0.022-0.075-0.022-0.101-0.022 0-0.136-0.2-0.181-0.299-0.25 0-0.34 0.548-0.793 0.848-0.997 0.324 0.204 0.649 0.431 0.998 0.657 0.698 0.545 1.397 1.089 2.121 1.634 0.873 0.566 1.696 1.314 2.594 1.836 0 0.069 0 0.159 0.026 0.25-0.373 0.497-0.747 1.018-1.096 1.541zm1.022-2.948c-0.299-0.228-0.599-0.455-0.897-0.681-0.274-0.159-0.523-0.295-0.773-0.432-0.025-0.045-0.025-0.068-0.025-0.091-0.1 0-0.897-0.566-0.923-0.611-0.549-0.204-1.022-0.841-1.597-0.953-0.075-0.068-0.15-0.113-0.226-0.159 0-0.204 0.051-0.316 0.176-0.477 1.621 0.727 3.119 2.019 4.715 2.745-1e-3 0.182-0.325 0.613-0.45 0.659zm1.872-0.614c-0.025-0.022-0.05-0.045-0.05-0.067 0.024-0.024 0.05-0.046 0.074-0.046-0.274-0.136-0.524-0.272-0.772-0.386-0.45-0.249-0.874-0.477-1.298-0.702-0.848-0.455-1.697-0.885-2.521-1.316-0.698-0.34-1.396-0.68-2.07-0.998 0.1-0.612 0.199-1.224 0.323-1.814 0.375-0.34 3.069 0.862 3.969 1.044 0.148 0.046 0.299 0.091 0.448 0.158 0.897 0.272 1.796 0.545 2.72 0.817 0.125 0.113 0.125 0.181 0.125 0.386h-0.1c-0.175 0.589-0.325 1.179-0.476 1.791-0.174 0.317-0.298 0.771-0.298 1.134-0.026-1e-3 -0.05-1e-3 -0.074-1e-3zm-32.459-0.113c-0.226-0.681-0.45-1.361-0.675-2.041-0.099-0.182-0.549-1.18-0.473-1.406 0.374-0.113 0.773-0.227 1.172-0.34 1.896-0.499 3.792-0.999 5.689-1.497h0.149c0.148 0.408 0.498 1.474 0.948 1.679-0.15 0.294-1.548 0.861-1.747 0.952-1.645 0.839-3.468 1.723-5.063 2.653zm33.956-4.83c-0.2-0.295-1.771-0.409-2.096-0.454-1.796-0.362-3.593-0.703-5.364-1.043 0.074-0.409 0.175-0.817 0.274-1.203 2.47 0.046 5.015 0.229 7.484 0.432-0.024 0.022-0.05 0.044-0.074 0.09 0.074 0.431 0.299 0.953 0.448 1.383-0.173 0.205-0.448 0.658-0.672 0.795zm-33.782-0.205c-0.15-0.703-0.274-1.383-0.4-2.063 0.1-0.023 0.226-0.046 0.351-0.068 1.745-0.091 3.518-0.182 5.288-0.25 0.101 0.454 0.2 0.908 0.324 1.383-1.871 0.318-3.718 0.658-5.563 0.998zm8.707-0.385c-0.051-0.023-0.075-0.045-0.101-0.068 0-0.158-0.024-0.25 0.05-0.386 0.149 0 0.226-0.067 0.375 0v0.317c-0.124 0.046-0.225 0.092-0.324 0.137zm18.087-2.995c-0.248-0.226-0.073-0.838-0.248-1.156 0.024-0.023 0.05-0.023 0.074-0.023-0.074 0-0.074-0.113-0.024-0.135-0.025-0.022-0.05-0.022-0.076-0.022v-0.091c0.15-0.069 0.325-0.114 0.5-0.16 1.696-0.317 3.419-0.634 5.14-0.929 0.024 0 0.075 0.022 0.125 0.044 0.125 0.545 0.249 1.112 0.373 1.678 0 0.136 0 0.272 0.026 0.409-0.05-0.023-0.101-0.045-0.125-0.045-1.896 0.113-3.793 0.25-5.688 0.386-0.026 0-0.05 0.022-0.077 0.044zm-22.154-0.044c-0.124-0.023-0.225-0.046-0.324-0.069-1.896-0.067-3.793-0.135-5.663-0.204-0.2-0.499-0.375-0.976-0.549-1.452h0.349c2.171 0.272 4.342 0.545 6.537 0.84 0.05 0.022 0.1 0.045 0.175 0.068-0.05 0.25-0.1 0.499-0.125 0.771-0.15 0-0.275 0.023-0.4 0.046zm0.774-1.543c-0.051-0.022-0.101-0.044-0.126-0.067-1.646-0.272-3.293-0.544-4.939-0.817 0-0.204 0.2-0.386 0.324-0.544 0.549 0.091 1.098 0.182 1.672 0.272 1.098 0.182 2.221 0.386 3.344 0.589-0.051 0.182-0.101 0.364-0.149 0.567h-0.126zm21.207-0.589c-0.225-0.339-0.449-0.681-0.673-0.998-0.075-0.205-0.549-0.658-0.399-0.862 0.324-0.09 0.724-0.317 0.972-0.499 0.95-0.476 1.897-0.952 2.871-1.406 1.071-0.272 2.345-1.814 3.317-1.52 0.448 1.043 0.898 2.086 1.372 3.152 0 0.068 0 0.137 0.025 0.205-0.149 0.023-0.3 0.045-0.449 0.068-2.345 0.613-4.691 1.224-7.036 1.86zm-20.733-0.386c-0.25-0.091-0.474-0.182-0.699-0.272-1.846-0.567-3.692-1.134-5.539-1.701h-0.099c0.449-1.02 1.347-1.927 1.745-2.925h0.125c1.946 1.043 3.893 2.109 5.863 3.175v0.182c-0.049 0-0.075 0.023-0.099 0.045v0.068c-0.05 0.023-0.101 0.045-0.15 0.091-0.225 0.317-0.448 0.635-0.649 0.952h-0.1c-0.049 0.114-0.1 0.227-0.148 0.341-0.1 0-0.175 0.021-0.25 0.044zm18.911-1.542c-0.374-0.612-1.447-0.93-2.095-1.225-0.026-0.045-0.051-0.091-0.051-0.113 0.074-0.091 0.149-0.159 0.25-0.227 0.723-0.658 1.447-1.315 2.195-1.973 0.1 0 1.421-1.293 1.571-1.452 0.325-0.272 0.674-0.544 1.023-0.816 0.125 0.159 0.249 0.34 0.374 0.522 0.424 0.793 0.973 1.633 1.323 2.449 0.049 0.091 0.098 0.182 0.174 0.294-0.1 0-0.2 0.023-0.274 0.045-1.223 0.658-2.445 1.338-3.643 2.019-0.298 0.16-0.572 0.318-0.847 0.477zm-8.333-0.34c-0.249-0.181-0.475-0.363-0.699-0.544-0.05-0.409-0.1-0.817-0.148-1.225-0.2-0.386-0.1-0.907-0.126-1.361-0.174-1.859-0.349-3.719-0.522-5.556 1.122-0.136 2.27-0.25 3.417-0.363h0.325c-0.126 0.612-0.225 1.225-0.325 1.859-0.149 0.817-0.299 1.633-0.448 2.472-0.25 1.361-0.475 2.722-0.699 4.083-0.276 0.203-0.525 0.408-0.775 0.635zm-8.134-0.227c-0.075-0.068-0.124-0.136-0.174-0.205-1.622-1.111-3.244-2.291-4.915-3.333-0.2-0.136-0.324-0.204-0.399-0.34 0.324-0.589 0.674-1.156 1.022-1.723 0.499 0 0.948 0.861 1.398 1.088 0.224 0.295 0.673 0.658 0.997 0.862 0.05 0.136 0.299 0.363 0.425 0.408 0.323 0.295 0.648 0.589 0.998 0.884 0.124 0.113 0.248 0.25 0.374 0.385 0.323 0.295 1.322 0.953 1.496 1.429-0.447 1e-3 -0.822 0.363-1.222 0.545zm6.987-0.091c-0.25-0.34-1.022-0.635-1.422-0.771-0.175-0.567-0.325-1.111-0.475-1.655-0.249-0.658-0.498-1.292-0.748-1.928-0.1-0.907-0.648-1.86-0.873-2.744-0.05-0.159-0.524-1.588-0.673-1.724 0.298-0.408 1.944-0.181 2.594-0.25 0.101 0 0.199 0.023 0.324 0.045 0.325 2.223 0.6 4.717 1.098 6.962-0.1 0.204 0.274 1.701 0.299 2.064-0.05 1e-3 -0.099 1e-3 -0.124 1e-3zm-1.622-0.567c-0.05-0.045-0.099-0.068-0.125-0.091 0.075 0 0.3 0 0.3 0.091h-0.175zm7.883-0.249c-0.474-0.068-0.924-0.114-1.372-0.159 0.15-0.227 0.301-0.453 0.448-0.68h0.076c0.175-0.477 0.573-0.862 0.823-1.316 0.125-0.181 0.25-0.34 0.374-0.499 0.798-1.588 1.972-3.13 2.92-4.65 0.349 0.318 0.599 0.771 0.873 1.157 0.323 0.068 0.648 0.136 0.998 0.227 0 0.34-0.75 0.794-0.898 1.225-0.2 0-0.149 0.136-0.2 0.227h-0.1c-0.873 0.998-1.747 2.018-2.619 3.039v0.09h-0.125c-0.375 0.431-0.724 0.862-1.073 1.293-0.048 0-0.098 0.023-0.125 0.046zm-2.918-0.182c-0.024-0.022-0.05-0.045-0.05-0.068 0.649-1.292 1.223-2.744 1.747-4.082 0.124-0.317 0.274-0.612 0.425-0.907 0.174-0.454 0.373-0.907 0.572-1.361 0.45 0 0.898 0.113 1.322 0.204 0.026 0.023 0.05 0.068 0.075 0.114-1.072 1.814-1.996 3.742-3.019 5.602 1e-3 0.544-0.623 0.385-1.072 0.498zm-0.649-0.113c0.175-0.68 0.35-1.361 0.524-2.018 0.148-0.5 0.324-0.976 0.499-1.452 0.149-0.998 0.599-2.064 0.923-3.017 0.125-0.431 0.249-0.839 0.374-1.247 0.25 0.068 0.5 0.136 0.773 0.204-0.323 0.862-0.648 1.747-0.973 2.631-0.549 1.564-1.098 3.129-1.646 4.694-0.174 0.069-0.324 0.137-0.474 0.205zm-7.309-0.091c-0.449-0.681-1.222-1.27-1.646-1.95-0.101-0.091-0.175-0.182-0.251-0.272h-0.074c0-0.091-0.075-0.136-0.125-0.159v-0.09c-0.225 0-0.647-0.839-0.922-0.953-0.126-0.295-0.549-0.59-0.699-0.884 0.075-0.045 0.15-0.091 0.25-0.137 0.872-0.294 1.771-0.567 2.668-0.839h0.251c0.074 0.181 0.149 0.363 0.248 0.567 0.301 0.544 0.625 1.111 0.949 1.679 0.474 0.929 0.948 1.859 1.423 2.789 0.023 0.068 0.049 0.159 0.074 0.25-0.725-1e-3 -1.447-1e-3 -2.146-1e-3zm4.291 8.438c-0.074 0-0.074-0.114-0.074-0.159 0.124-0.023 0.248-0.046 0.373-0.046 0 0.069 0.125 0.069 0.199 0.046v0.068c-0.074 0-0.148-0.023-0.074 0.045-0.15 0-0.299 0.022-0.424 0.046zm0.948 0c-0.275-0.341-0.176-0.681 0-1.043 0.099-0.091 0.225-0.182 0.35-0.25 0.374 0 0.623-0.066 0.947 0.137 0.074 0.09 0.15 0.204 0.25 0.317-0.025 0.249-0.05 0.521-0.05 0.793-0.5 0-0.998 0.022-1.497 0.046zm2.07-0.046c-0.024-0.023-0.05-0.045-0.05-0.068 0.149-0.136 0.374-0.204 0.599-0.136 0 0.022 0.024 0.044 0.05 0.068-0.199 0.045-0.399 0.09-0.599 0.136zm-3.367-0.317c0-0.069 0-0.137 0.023-0.182 0.125 0 0.251 0 0.375 0.022v0.16h-0.398zm3.517-0.228v-0.067c0.249-0.114 0.522-0.25 0.823-0.182 1e-3 0.182-0.673 0.226-0.823 0.249zm-3.243-0.181c-0.2-0.067-0.4-0.136-0.6-0.204v-0.091c0.25-0.113 0.499 0.091 0.773 0.137v0.113c-0.074-1e-3 -0.123 0.022-0.173 0.045zm3.143-0.09v-0.137c0.3-0.135 0.549-0.43 0.924-0.43-0.199 0.272-0.6 0.43-0.924 0.567zm-2.868-0.227c-0.35-0.205-0.898-0.566-1.323-0.613 0-0.068 0.025-0.135 0.05-0.204 0.125 0.045 1.372 0.499 1.372 0.771-0.049 0-0.076 0.022-0.099 0.046zm2.744-0.068c-0.026-0.068-0.05-0.114-0.05-0.159 0.249-0.273 0.848-0.998 1.271-0.998 1e-3 0.226-0.997 0.953-1.221 1.157zm-2.521-0.204c-0.274-0.137-0.599-0.545-0.749-0.795 0.026-0.023 0.051-0.045 0.101-0.045 0.249 0.113 0.523 0.408 0.699 0.612 0 0.046 0 0.114 0.023 0.182-0.023 0-0.049 0.023-0.074 0.046zm2.271-0.046c-0.024-0.068-0.051-0.113-0.051-0.159 0.076-0.136 0.425-0.726 0.575-0.726 0 0.317-0.324 0.636-0.524 0.885zm-1.945-0.182c-0.301-0.339-0.525-0.815-0.874-1.133 0-0.114 0.025-0.227 0.175-0.159 0.274 0.385 0.549 0.793 0.823 1.201-0.05 0.024-0.101 0.046-0.124 0.091zm1.696 0c-0.05-0.091-0.1-0.158-0.15-0.226 0.051-0.136 0.399-1.202 0.549-1.202-1e-3 0.453-0.275 0.998-0.399 1.428zm-1.298-0.158c-0.124-0.272-0.324-0.612-0.324-0.93h0.25v0.228h0.074c0 0.114-0.05 0.271 0.1 0.409 0 0.067 0 0.158 0.024 0.249-0.049-2e-3 -0.099 0.021-0.124 0.044zm0.849-0.046c0-0.295-0.051-0.794 0.175-0.998 0.124 0.113-0.05 0.771-0.05 0.998h-0.125zm-0.451-0.022c-0.099-0.431-0.099-0.907-0.124-1.361 0.05-0.022 0.1-0.045 0.174-0.045 0.025 0.453 0.076 0.93 0.126 1.406h-0.176zm-0.323 11.726c-0.474-0.273-0.924-0.545-1.372-0.794-0.1-0.137-0.45-0.386-0.624-0.386v-0.091c-0.074-0.023-0.15-0.046-0.225-0.068-0.649-0.476-1.272-0.93-1.896-1.384-0.624-0.362-1.273-1.088-1.797-1.564-0.549-0.295-0.923-1.021-1.447-1.338 0-0.091-0.299-0.408-0.375-0.432-0.124-0.181-0.225-0.34-0.323-0.499h-0.075c-0.175-0.226-0.349-0.453-0.499-0.681-0.05-0.09-0.398-0.702-0.523-0.748-0.25-0.477-0.5-0.952-0.725-1.429-0.099-0.227-0.174-0.453-0.248-0.657-0.2-0.953-0.325-1.928-0.2-2.904 0.324-1.088 0.873-2.449 1.945-3.106 0-0.386 0.999-0.681 1.298-0.953 0.351-0.159 0.698-0.295 1.047-0.431 0.699-0.091 1.398-0.182 2.097-0.25 0.924 0.113 1.946 0.227 2.695 0.771 0.198 0 0.499 0.295 0.648 0.408v0.068c0.423 0.294 0.549 0.204 0.997-0.091 0.725-0.658 1.697-0.953 2.669-1.134h1.773c0.823 0.159 1.62 0.431 2.369 0.771 0.425 0.272 0.849 0.567 1.297 0.862v0.09c0.45 0.272 0.898 0.907 1.049 1.362 0.424 0.385 0.474 1.813 0.424 2.403-0.125 0.455-0.226 0.908-0.324 1.383-0.424 0.703-0.923 1.497-1.672 1.951v0.068c-0.475 0.227-0.947 0.453-1.422 0.703-0.474 0.091-0.948 0.182-1.423 0.294-0.424-0.022-0.847-0.022-1.247-0.022-0.599-0.09-1.197-0.181-1.771-0.25v-0.113c1.597-0.227 3.293-0.657 4.665-1.428 0.35-0.341 0.724-0.658 1.099-0.976 0.125-0.204 0.25-0.408 0.374-0.613 0.101-0.339 0.199-0.68 0.324-1.02v-0.794c-0.149-0.771-0.549-2.019-1.372-2.382-0.624-0.726-1.871-1.021-2.844-1.021-0.874 0.136-2.445 0.544-2.845 1.292-0.225 0-0.648 0.84-0.698 0.975 0.125 0.114 0.798 0.023 0.998 0.023 0.923 0.136 1.396 0.522 1.671 1.361 0 0.271 0.025 0.544 0.05 0.839-0.05 0.408-0.299 1.315-0.698 1.497-0.024 0.069-0.024 0.136-0.024 0.204h-0.101c-0.25 0.295-0.623 0.816-0.997 1.021-0.125 0.137-0.25 0.272-0.375 0.432-0.2 0.158-0.398 0.316-0.599 0.477-0.025 0.021-0.05 0.045-0.05 0.09-0.074-0.045-0.149-0.068-0.199-0.09-0.45-0.364-0.874-0.727-1.298-1.066-0.224-0.249-0.448-0.499-0.673-0.75-0.226-0.248-0.449-0.476-0.675-0.703-0.274-0.452-0.499-0.839-0.623-1.338 0-0.817 0.15-1.338 0.823-1.905 0.499-0.271 0.974-0.317 1.547-0.271 0.174 0.045 0.35 0.09 0.524 0.136-0.15-0.703-0.924-1.27-1.696-1.361 0-0.25-1.473-0.272-1.646-0.272-0.898 0.113-1.723 0.567-2.421 1.134v0.113c-0.25 0-0.324 0.363-0.449 0.521-0.249 0.703-0.226 1.339-0.05 2.042 0.373 0.681 0.624 0.953 1.323 1.383 0.747 0.34 1.546 0.544 2.02 1.203 0 0.181 0 0.385 0.025 0.589-0.05 0.09-0.101 0.181-0.15 0.272-0.274 0-0.398-0.272-0.549-0.454h-0.074v-0.091c-0.25-0.045-0.573-0.408-0.823-0.521-0.799-0.725-2.346-0.771-3.343-0.386-0.274 0.25-1.074 0.636-0.898 1.111h0.723c1.173 0.158 1.872 1.656 2.246 2.518 0.1 0.091 0.125 0.091 0.175 0.249 0.375 0.432 0.748 0.862 1.122 1.315h0.075c0.35 0.477 1.272 0.839 1.872 1.021 0.224 0.045 0.474 0.091 0.723 0.158 0.398 0 0.823 0 1.248 0.023 0.374-0.114 0.773-0.204 1.172-0.295 0.174-0.091 0.673-0.363 0.798-0.522h0.101c0.35-0.408 0.948-0.702 1.322-1.111 0.05-0.022 0.099-0.045 0.149-0.045 0-0.182 0.849-0.703 0.948-0.794 0.226-0.136 0.449-0.271 0.674-0.385 0.673-0.205 1.297-0.432 2.045-0.363 0.325 0.045 1.099 0.182 1.099 0.544-0.449 0.317-0.799 0.885-1.122 1.315-0.15 0.137-0.525 0.386-0.525 0.59h-0.1c-0.1 0.091-0.175 0.182-0.249 0.271-0.024 0.023-0.024 0.068-0.024 0.114h-0.101c-0.099 0.067-0.199 0.158-0.274 0.249 0 0.272-0.698 0.477-0.848 0.771-1.373 1.156-2.845 2.245-4.366 3.22-0.101 0.029-0.201 0.051-0.276 0.075zm1.398 5.192v-0.09c-0.999-0.137-1.996-0.249-2.969-0.363-0.2-0.022-0.375-0.022-0.549-0.022 0.124-1.339 0.248-2.677 0.398-4.015 0-0.272-0.101-0.839 0.124-1.043 0.126 0.091 0.25 0.181 0.375 0.295 0.35 0 0.997 0.612 1.397 0.726 0.299-0.182 0.599-0.386 0.922-0.477 0.15 1.655 0.301 3.312 0.449 4.989h-0.147z" clip-rule="evenodd" fill="#0E2A4B" fill-rule="evenodd"/>
</svg>
